<svg width="20" height="20" viewBox="0 0 20 20" fill="none" xmlns="http://www.w3.org/2000/svg">
<path d="M10 -4.37114e-07C15.515 -6.78182e-07 20 4.486 20 10C20 15.514 15.515 20 10 20C4.486 20 -1.96089e-07 15.514 -4.37114e-07 10C-6.78138e-07 4.486 4.486 -1.96089e-07 10 -4.37114e-07Z" fill="#F91942"/>
<path d="M8.56188 5.77991C8.75288 5.77991 8.94488 5.85291 9.09088 5.99891L12.5779 9.46891C12.7189 9.60991 12.7979 9.80091 12.7979 10.0009C12.7979 10.1999 12.7189 10.3909 12.5779 10.5319L9.09088 14.0039C8.79788 14.2959 8.32388 14.2959 8.03088 14.0019C7.73888 13.7079 7.73988 13.2329 8.03288 12.9409L10.9859 10.0009L8.03288 7.06091C7.73988 6.76891 7.73888 6.29491 8.03088 6.00091C8.17688 5.85291 8.36988 5.77991 8.56188 5.77991Z" fill="white"/>
</svg>
