<svg width="28" height="28" viewBox="0 0 28 28" fill="none" xmlns="http://www.w3.org/2000/svg">
<path d="M19.1429 14C19.1429 16.8403 16.8403 19.1429 14 19.1429C11.1597 19.1429 8.85714 16.8403 8.85714 14C8.85714 11.1597 11.1597 8.85714 14 8.85714C16.8403 8.85714 19.1429 11.1597 19.1429 14ZM19.1429 14V15.7143C19.1429 17.6078 20.6779 19.1429 22.5714 19.1429C23.7878 19.1429 24.8562 18.5094 25.4648 17.5545C25.8037 17.0228 26 16.3915 26 15.7143V14C26 7.37258 20.6274 2 14 2C7.37258 2 2 7.37258 2 14C2 20.6274 7.37258 26 14 26C16.5496 26 18.9134 25.2049 20.8571 23.8491" stroke="white" stroke-width="3" stroke-linecap="round" stroke-linejoin="round"/>
</svg>
