<svg width="216" height="40" viewBox="0 0 216 40" fill="none" xmlns="http://www.w3.org/2000/svg">
<path d="M40.0024 19.6652C40.0024 8.82827 31.4214 0 20.8948 0C17.1531 0 13.5361 1.11593 10.418 3.19901C9.96901 3.49659 9.84429 4.11655 10.1436 4.58772C10.443 5.0341 11.0666 5.15809 11.5405 4.86051C14.3343 2.97582 17.5522 1.98388 20.8948 1.98388C30.3488 1.98388 38.0318 9.9194 38.0318 19.6652C38.0318 23.1618 37.0589 26.5096 35.213 29.3862L33.6914 28.0471L32.4691 34.0484L38.3062 32.0893L36.7346 30.7006C38.8799 27.452 40.0024 23.6578 40.0024 19.6652Z" fill="#F91942"/>
<path d="M-0.000444234 20.3348C-0.000443281 31.1717 8.58052 40 19.1072 40C22.8489 40 26.4659 38.8841 29.5839 36.801C30.0329 36.5034 30.1577 35.8834 29.8583 35.4123C29.559 34.9659 28.9354 34.8419 28.4614 35.1395C25.6676 37.0242 22.4498 38.0161 19.1072 38.0161C9.65314 38.0161 1.97019 30.0806 1.97019 20.3348C1.97019 16.8382 2.94303 13.4904 4.78893 10.6138L6.31056 11.9529L7.53284 5.95165L1.69579 7.91073L3.26731 9.29945C1.12207 12.5481 -0.000444585 16.3422 -0.000444234 20.3348Z" fill="#F91942"/>
<path d="M49.74 25V10.9H51.38V23.56H58.56V25H49.74ZM64.4194 25.18C63.4727 25.18 62.6527 24.9733 61.9594 24.56C61.266 24.1467 60.726 23.5667 60.3394 22.82C59.966 22.06 59.7794 21.1667 59.7794 20.14C59.7794 19.1133 59.966 18.2267 60.3394 17.48C60.726 16.72 61.266 16.1333 61.9594 15.72C62.6527 15.3067 63.4727 15.1 64.4194 15.1C65.3527 15.1 66.166 15.3067 66.8594 15.72C67.566 16.1333 68.106 16.72 68.4794 17.48C68.866 18.2267 69.0594 19.1133 69.0594 20.14C69.0594 21.1667 68.866 22.06 68.4794 22.82C68.106 23.5667 67.566 24.1467 66.8594 24.56C66.166 24.9733 65.3527 25.18 64.4194 25.18ZM64.4194 23.88C65.326 23.88 66.0527 23.56 66.5994 22.92C67.146 22.2667 67.4194 21.34 67.4194 20.14C67.4194 18.9267 67.146 18 66.5994 17.36C66.0527 16.72 65.326 16.4 64.4194 16.4C63.4994 16.4 62.766 16.72 62.2194 17.36C61.686 18 61.4194 18.9267 61.4194 20.14C61.4194 21.34 61.686 22.2667 62.2194 22.92C62.766 23.56 63.4994 23.88 64.4194 23.88ZM75.6127 25.18C74.6393 25.18 73.7993 24.9733 73.0927 24.56C72.386 24.1333 71.8393 23.54 71.4527 22.78C71.0793 22.0067 70.8927 21.1067 70.8927 20.08C70.8927 18.5333 71.3127 17.32 72.1527 16.44C72.9927 15.5467 74.146 15.1 75.6127 15.1C76.2127 15.1 76.806 15.2067 77.3927 15.42C77.9793 15.6333 78.466 15.9333 78.8527 16.32L78.2927 17.5C77.906 17.1267 77.4793 16.8533 77.0127 16.68C76.5593 16.5067 76.126 16.42 75.7127 16.42C74.6993 16.42 73.9193 16.74 73.3727 17.38C72.826 18.0067 72.5527 18.9133 72.5527 20.1C72.5527 21.26 72.826 22.18 73.3727 22.86C73.9193 23.5267 74.6993 23.86 75.7127 23.86C76.126 23.86 76.5593 23.7733 77.0127 23.6C77.4793 23.4267 77.906 23.1467 78.2927 22.76L78.8527 23.94C78.466 24.3267 77.9727 24.6333 77.3727 24.86C76.786 25.0733 76.1993 25.18 75.6127 25.18ZM83.7323 25.18C83.0657 25.18 82.4657 25.0533 81.9323 24.8C81.4123 24.5333 80.999 24.1733 80.6923 23.72C80.3857 23.2667 80.2323 22.76 80.2323 22.2C80.2323 21.4933 80.4123 20.9333 80.7723 20.52C81.1457 20.1067 81.7523 19.8133 82.5923 19.64C83.4457 19.4533 84.6057 19.36 86.0723 19.36H86.7123V18.74C86.7123 17.9133 86.539 17.32 86.1923 16.96C85.859 16.5867 85.319 16.4 84.5723 16.4C83.9857 16.4 83.419 16.4867 82.8723 16.66C82.3257 16.82 81.7657 17.0867 81.1923 17.46L80.6323 16.28C81.139 15.92 81.7523 15.6333 82.4723 15.42C83.2057 15.2067 83.9057 15.1 84.5723 15.1C85.8257 15.1 86.7523 15.4067 87.3523 16.02C87.9657 16.6333 88.2723 17.5867 88.2723 18.88V25H86.7523V23.32C86.499 23.8933 86.1057 24.3467 85.5723 24.68C85.0523 25.0133 84.439 25.18 83.7323 25.18ZM83.9923 23.96C84.7923 23.96 85.4457 23.6867 85.9523 23.14C86.459 22.58 86.7123 21.8733 86.7123 21.02V20.42H86.0923C85.0123 20.42 84.159 20.4733 83.5323 20.58C82.919 20.6733 82.4857 20.8467 82.2323 21.1C81.9923 21.34 81.8723 21.6733 81.8723 22.1C81.8723 22.6467 82.059 23.0933 82.4323 23.44C82.819 23.7867 83.339 23.96 83.9923 23.96ZM94.2578 25.18C93.2711 25.18 92.5245 24.8933 92.0178 24.32C91.5245 23.7333 91.2778 22.8867 91.2778 21.78V10.9H92.8978V21.66C92.8978 23.0867 93.4645 23.8 94.5978 23.8C94.9311 23.8 95.2311 23.76 95.4978 23.68L95.4578 25.04C95.0445 25.1333 94.6445 25.18 94.2578 25.18ZM103.34 25.18C101.953 25.18 100.767 24.8867 99.78 24.3C98.7933 23.7133 98.0333 22.88 97.5 21.8C96.98 20.72 96.72 19.4333 96.72 17.94C96.72 16.46 96.98 15.18 97.5 14.1C98.0333 13.02 98.7933 12.1867 99.78 11.6C100.767 11.0133 101.953 10.72 103.34 10.72C104.313 10.72 105.207 10.8733 106.02 11.18C106.847 11.4867 107.547 11.9333 108.12 12.52L107.48 13.86C106.867 13.2867 106.227 12.8733 105.56 12.62C104.907 12.3533 104.18 12.22 103.38 12.22C101.793 12.22 100.58 12.72 99.74 13.72C98.9 14.72 98.48 16.1267 98.48 17.94C98.48 19.7667 98.9 21.18 99.74 22.18C100.58 23.18 101.793 23.68 103.38 23.68C104.18 23.68 104.907 23.5533 105.56 23.3C106.227 23.0333 106.867 22.6133 107.48 22.04L108.12 23.38C107.547 23.9533 106.847 24.4 106.02 24.72C105.207 25.0267 104.313 25.18 103.34 25.18ZM113.225 25.18C112.558 25.18 111.958 25.0533 111.425 24.8C110.905 24.5333 110.491 24.1733 110.185 23.72C109.878 23.2667 109.725 22.76 109.725 22.2C109.725 21.4933 109.905 20.9333 110.265 20.52C110.638 20.1067 111.245 19.8133 112.085 19.64C112.938 19.4533 114.098 19.36 115.565 19.36H116.205V18.74C116.205 17.9133 116.031 17.32 115.685 16.96C115.351 16.5867 114.811 16.4 114.065 16.4C113.478 16.4 112.911 16.4867 112.365 16.66C111.818 16.82 111.258 17.0867 110.685 17.46L110.125 16.28C110.631 15.92 111.245 15.6333 111.965 15.42C112.698 15.2067 113.398 15.1 114.065 15.1C115.318 15.1 116.245 15.4067 116.845 16.02C117.458 16.6333 117.765 17.5867 117.765 18.88V25H116.245V23.32C115.991 23.8933 115.598 24.3467 115.065 24.68C114.545 25.0133 113.931 25.18 113.225 25.18ZM113.485 23.96C114.285 23.96 114.938 23.6867 115.445 23.14C115.951 22.58 116.205 21.8733 116.205 21.02V20.42H115.585C114.505 20.42 113.651 20.4733 113.025 20.58C112.411 20.6733 111.978 20.8467 111.725 21.1C111.485 21.34 111.365 21.6733 111.365 22.1C111.365 22.6467 111.551 23.0933 111.925 23.44C112.311 23.7867 112.831 23.96 113.485 23.96ZM120.77 25V15.28H122.35V17.02C122.87 15.8467 123.937 15.2 125.55 15.08L126.13 15.02L126.25 16.42L125.23 16.54C124.31 16.62 123.61 16.9133 123.13 17.42C122.65 17.9133 122.41 18.5933 122.41 19.46V25H120.77ZM128.158 25V10.9H129.798V17.14H138.258V10.9H139.898V25H138.258V18.56H129.798V25H128.158ZM142.953 12.86V11.04H144.953V12.86H142.953ZM143.153 25V15.28H144.773V25H143.153ZM147.801 25V15.28H149.381V17.02C149.901 15.8467 150.968 15.2 152.581 15.08L153.161 15.02L153.281 16.42L152.261 16.54C151.341 16.62 150.641 16.9133 150.161 17.42C149.681 17.9133 149.441 18.5933 149.441 19.46V25H147.801ZM159.232 25.18C157.699 25.18 156.485 24.7333 155.592 23.84C154.699 22.9333 154.252 21.7067 154.252 20.16C154.252 19.16 154.452 18.28 154.852 17.52C155.252 16.7467 155.799 16.1533 156.492 15.74C157.199 15.3133 158.012 15.1 158.932 15.1C160.252 15.1 161.285 15.5267 162.032 16.38C162.779 17.22 163.152 18.38 163.152 19.86V20.48H155.832C155.885 21.5867 156.205 22.4333 156.792 23.02C157.379 23.5933 158.192 23.88 159.232 23.88C159.819 23.88 160.379 23.7933 160.912 23.62C161.445 23.4333 161.952 23.1333 162.432 22.72L162.992 23.86C162.552 24.2733 161.992 24.6 161.312 24.84C160.632 25.0667 159.939 25.18 159.232 25.18ZM158.972 16.3C158.052 16.3 157.325 16.5867 156.792 17.16C156.259 17.7333 155.945 18.4867 155.852 19.42H161.752C161.712 18.4333 161.452 17.6667 160.972 17.12C160.505 16.5733 159.839 16.3 158.972 16.3ZM168.777 25.18C168.017 25.18 167.297 25.0733 166.617 24.86C165.937 24.6467 165.377 24.3467 164.937 23.96L165.457 22.82C165.937 23.2067 166.463 23.4933 167.037 23.68C167.623 23.8533 168.217 23.94 168.817 23.94C169.577 23.94 170.15 23.8 170.537 23.52C170.923 23.24 171.117 22.86 171.117 22.38C171.117 22.0067 170.99 21.7133 170.737 21.5C170.483 21.2733 170.083 21.1 169.537 20.98L167.717 20.58C166.063 20.22 165.237 19.3667 165.237 18.02C165.237 17.14 165.583 16.4333 166.277 15.9C166.983 15.3667 167.903 15.1 169.037 15.1C169.703 15.1 170.337 15.2067 170.937 15.42C171.55 15.62 172.057 15.92 172.457 16.32L171.917 17.46C171.53 17.1 171.077 16.8267 170.557 16.64C170.05 16.44 169.543 16.34 169.037 16.34C168.29 16.34 167.723 16.4867 167.337 16.78C166.95 17.0733 166.757 17.46 166.757 17.94C166.757 18.6867 167.25 19.1667 168.237 19.38L170.057 19.76C170.91 19.9467 171.557 20.2467 171.997 20.66C172.437 21.06 172.657 21.6067 172.657 22.3C172.657 23.1933 172.303 23.9 171.597 24.42C170.89 24.9267 169.95 25.18 168.777 25.18Z" fill="#3A3A3A"/>
<path d="M174.865 25V22.96H176.905V25H174.865ZM183.347 25.18C182.374 25.18 181.534 24.9733 180.827 24.56C180.12 24.1333 179.574 23.54 179.187 22.78C178.814 22.0067 178.627 21.1067 178.627 20.08C178.627 18.5333 179.047 17.32 179.887 16.44C180.727 15.5467 181.88 15.1 183.347 15.1C183.947 15.1 184.54 15.2067 185.127 15.42C185.714 15.6333 186.2 15.9333 186.587 16.32L186.027 17.5C185.64 17.1267 185.214 16.8533 184.747 16.68C184.294 16.5067 183.86 16.42 183.447 16.42C182.434 16.42 181.654 16.74 181.107 17.38C180.56 18.0067 180.287 18.9133 180.287 20.1C180.287 21.26 180.56 22.18 181.107 22.86C181.654 23.5267 182.434 23.86 183.447 23.86C183.86 23.86 184.294 23.7733 184.747 23.6C185.214 23.4267 185.64 23.1467 186.027 22.76L186.587 23.94C186.2 24.3267 185.707 24.6333 185.107 24.86C184.52 25.0733 183.934 25.18 183.347 25.18ZM192.33 25.18C191.383 25.18 190.563 24.9733 189.87 24.56C189.176 24.1467 188.636 23.5667 188.25 22.82C187.876 22.06 187.69 21.1667 187.69 20.14C187.69 19.1133 187.876 18.2267 188.25 17.48C188.636 16.72 189.176 16.1333 189.87 15.72C190.563 15.3067 191.383 15.1 192.33 15.1C193.263 15.1 194.076 15.3067 194.77 15.72C195.476 16.1333 196.016 16.72 196.39 17.48C196.776 18.2267 196.97 19.1133 196.97 20.14C196.97 21.1667 196.776 22.06 196.39 22.82C196.016 23.5667 195.476 24.1467 194.77 24.56C194.076 24.9733 193.263 25.18 192.33 25.18ZM192.33 23.88C193.236 23.88 193.963 23.56 194.51 22.92C195.056 22.2667 195.33 21.34 195.33 20.14C195.33 18.9267 195.056 18 194.51 17.36C193.963 16.72 193.236 16.4 192.33 16.4C191.41 16.4 190.676 16.72 190.13 17.36C189.596 18 189.33 18.9267 189.33 20.14C189.33 21.34 189.596 22.2667 190.13 22.92C190.676 23.56 191.41 23.88 192.33 23.88ZM199.443 25V15.28H201.023V16.92C201.316 16.3333 201.723 15.8867 202.243 15.58C202.763 15.26 203.369 15.1 204.063 15.1C205.583 15.1 206.556 15.76 206.983 17.08C207.276 16.4667 207.709 15.9867 208.283 15.64C208.856 15.28 209.516 15.1 210.263 15.1C212.423 15.1 213.503 16.38 213.503 18.94V25H211.883V19.02C211.883 18.1267 211.723 17.4733 211.403 17.06C211.096 16.6333 210.583 16.42 209.863 16.42C209.076 16.42 208.449 16.7 207.983 17.26C207.516 17.82 207.283 18.5667 207.283 19.5V25H205.663V19.02C205.663 18.1267 205.503 17.4733 205.183 17.06C204.876 16.6333 204.363 16.42 203.643 16.42C202.843 16.42 202.209 16.7 201.743 17.26C201.289 17.82 201.063 18.5667 201.063 19.5V25H199.443Z" fill="#F91942"/>
</svg>
